<svg xmlns="http://www.w3.org/2000/svg" viewBox="0 0 218.12 37.97"><defs><style>.cls-1{fill:#33460e;}.cls-2{fill:#fff;}</style></defs><title>Asset 1</title><g id="Layer_2" data-name="Layer 2"><g id="Layer_3" data-name="Layer 3"><path class="cls-1" d="M49.55,19.76c.62-.05.89-.28.89-1.69V9.38c0-.26,0-.33-.27-.33H48.55a2.52,2.52,0,0,0-1.85.47,3.13,3.13,0,0,0-.57,1.14.61.61,0,0,1-.46-.07c.2-1,.34-1.85.44-2.71a.62.62,0,0,1,.33,0c.16.53.67.55,1.29.55h7.49c.78,0,1.08-.13,1.23-.55a.52.52,0,0,1,.35,0,23.16,23.16,0,0,0-.21,2.78.59.59,0,0,1-.47,0,2.38,2.38,0,0,0-.28-1.13c-.26-.33-.76-.51-1.64-.51H52.27c-.23,0-.26.07-.26.33v8.69c0,1.41.26,1.64.92,1.69l.66,0a.6.6,0,0,1,0,.44l-2.31,0-2.47,0s-.07-.4,0-.44Z"/><path class="cls-1" d="M59,8.88a4.47,4.47,0,0,0-.7-.05.66.66,0,0,1,0-.44c.84,0,1.53,0,2.3,0s1.43,0,2.25,0a.66.66,0,0,1,0,.44,3.14,3.14,0,0,0-.59.05c-.63.1-.89.33-.89,1.69v2.9c0,.22.07.28.35.28h6.19c.26,0,.33-.06.33-.28v-2.9c0-1.38-.3-1.59-.89-1.69a3.45,3.45,0,0,0-.59-.05.6.6,0,0,1,0-.44c.86,0,1.57,0,2.34,0s1.4,0,2.18,0a.66.66,0,0,1,0,.44,4,4,0,0,0-.61.05c-.65.07-.89.35-.89,1.69v7.5c0,1.34.24,1.6,1,1.69l.56,0a.73.73,0,0,1,0,.46c-.8,0-1.48-.05-2.22-.05s-1.48,0-2.32.05a.66.66,0,0,1,0-.46,4.79,4.79,0,0,0,.55,0c.67-.09.93-.42.93-1.69V14.74c0-.21-.07-.28-.38-.28H61.74c-.28,0-.35,0-.35.28v3.33c0,1.34.28,1.62.92,1.69.35,0,.45,0,.65,0a.73.73,0,0,1,0,.46c-.89,0-1.55-.05-2.29-.05s-1.48,0-2.26.05a.66.66,0,0,1,0-.46,3.89,3.89,0,0,0,.52,0c.67-.1.93-.36.93-1.69v-7.5C59.82,9.23,59.54,8.93,59,8.88Z"/><path class="cls-1" d="M79.8,15.11c-.1-.58-.47-.75-1.53-.75H76.66c-.29,0-.38,0-.38.33v2.67a3.81,3.81,0,0,0,.23,1.76c.22.36.61.55,1.88.55a7.34,7.34,0,0,0,2.23-.24,2.7,2.7,0,0,0,1.62-1.81.48.48,0,0,1,.42.08c-.24.79-.45,1.54-.75,2.55l-4.93,0H75.41c-.75,0-1.43,0-2.34,0a.65.65,0,0,1,0-.44,6.64,6.64,0,0,0,.68,0c.77-.09,1-.35,1-1.83V10.71c0-1.41-.14-1.73-.91-1.83a5,5,0,0,0-.59-.05.73.73,0,0,1,0-.46c1,0,1.85.06,2.79.06h3.09c.9,0,1.76,0,2.23-.06,0,1,.07,1.66.14,2.46,0,.05-.35.11-.4.05-.21-.88-.46-1.44-1.22-1.72A5.3,5.3,0,0,0,78.18,9H76.8c-.31,0-.52.12-.52.49v4c0,.28.1.34.4.34H78.3c.93,0,1.38-.27,1.5-.79.07-.3.12-.49.16-.73a.66.66,0,0,1,.44,0c0,.4-.07,1.22-.07,1.86s.08,1.33.07,1.8A.66.66,0,0,1,80,16C79.92,15.65,79.87,15.44,79.8,15.11Z"/><path class="cls-1" d="M89.5,8.88a4.47,4.47,0,0,0-.7-.05s0-.42,0-.44c.83,0,1.53,0,2.3,0s1.43,0,2.25,0a.66.66,0,0,1,0,.44,3.29,3.29,0,0,0-.6.05c-.62.1-.89.33-.89,1.69v2.9c0,.22.07.28.35.28h6.19c.27,0,.34-.06.34-.28v-2.9c0-1.38-.3-1.59-.89-1.69a3.47,3.47,0,0,0-.6-.05.66.66,0,0,1,0-.44c.86,0,1.57,0,2.34,0s1.39,0,2.18,0a.6.6,0,0,1,0,.44,4.16,4.16,0,0,0-.61.05c-.64.07-.89.35-.89,1.69v7.5c0,1.34.25,1.6,1,1.69l.56,0a.61.61,0,0,1,0,.46c-.8,0-1.48-.05-2.21-.05s-1.48,0-2.32.05a.72.72,0,0,1,0-.46,5.13,5.13,0,0,0,.56,0c.66-.09.93-.42.93-1.69V14.74c0-.21-.07-.28-.39-.28H92.25c-.28,0-.35,0-.35.28v3.33c0,1.34.28,1.62.93,1.69.35,0,.45,0,.64,0a.66.66,0,0,1,0,.46c-.89,0-1.56-.05-2.29-.05s-1.48,0-2.27.05a.66.66,0,0,1,0-.46,3.89,3.89,0,0,0,.52,0c.66-.1.92-.36.92-1.69v-7.5C90.33,9.23,90.05,8.93,89.5,8.88Z"/><path class="cls-1" d="M106.71,19.57c-1-.73-1.48-1.92-1.48-3.78V10.57c0-1.45-.28-1.6-.81-1.69a4.88,4.88,0,0,0-.73-.05.66.66,0,0,1,0-.44c.84,0,1.53,0,2.28,0s1.45,0,2.3,0c.06,0,.08.4,0,.44s-.42,0-.66.05c-.59,0-.85.24-.85,1.69v4.81c0,2.45.76,4.37,3.45,4.37s3.33-2.12,3.33-4V12.25c0-1.47,0-2.81-.42-3.16a1.18,1.18,0,0,0-.59-.21c-.28,0-.49-.05-.63-.05a.66.66,0,0,1,0-.44c.7,0,1.38,0,2.09,0s1.17,0,1.78,0c.07,0,.07.38,0,.44a3,3,0,0,0-.51.05.92.92,0,0,0-.63.3,7.67,7.67,0,0,0-.31,3.05V15.7A4.8,4.8,0,0,1,113,19.4a4.7,4.7,0,0,1-3.17,1.06A5.13,5.13,0,0,1,106.71,19.57Z"/><path class="cls-1" d="M118.27,19.76a.8.8,0,0,0,.42-.19c.42-.38.59-1.2.59-2.58v-6.3a1.85,1.85,0,0,0-.42-1.37,1.6,1.6,0,0,0-.9-.44,4.27,4.27,0,0,0-.63-.05c0-.06,0-.4,0-.44.64,0,1.36,0,1.79,0s.75,0,1.1,0a41.71,41.71,0,0,0,3.66,4.33l1.68,1.86c1.08,1.21,2,2.17,2.79,3h0V11.25c0-1-.13-1.81-.72-2.18a1.71,1.71,0,0,0-.7-.19,4.84,4.84,0,0,0-.5-.05c-.07-.06,0-.42,0-.44.81,0,1.5,0,2.24,0s1.27,0,1.9,0c.07,0,.07.38,0,.44a3.39,3.39,0,0,0-.41.05,1.28,1.28,0,0,0-.59.17,2.92,2.92,0,0,0-.56,2.17v5.66c0,1.63,0,3.25.06,3.48,0,.05-.28.08-.37.08s-1.52-1.71-2.29-2.56l-4.74-5.29c-.24-.26-1.52-1.74-1.74-2.07h0V17c0,1.31.07,2.15.56,2.57a1.29,1.29,0,0,0,.73.22,4.83,4.83,0,0,0,.63,0,.65.65,0,0,1,0,.44l-2.18,0c-.75,0-1.38,0-2.06,0-.07,0-.07-.38,0-.44A6.35,6.35,0,0,0,118.27,19.76Z"/><path class="cls-1" d="M135.8,19.76c.62-.05.89-.28.89-1.69V9.38c0-.26,0-.33-.27-.33H134.8a2.5,2.5,0,0,0-1.85.47,3.13,3.13,0,0,0-.57,1.14.61.61,0,0,1-.46-.07c.2-1,.34-1.85.44-2.71a.62.62,0,0,1,.33,0c.16.53.66.55,1.29.55h7.48c.79,0,1.09-.13,1.24-.55a.52.52,0,0,1,.35,0,23.16,23.16,0,0,0-.21,2.78.59.59,0,0,1-.47,0,2.38,2.38,0,0,0-.28-1.13c-.26-.33-.76-.51-1.64-.51h-1.93c-.23,0-.27.07-.27.33v8.69c0,1.41.27,1.64.93,1.69l.66,0a.66.66,0,0,1,0,.44l-2.31,0-2.47,0c-.06,0-.07-.4,0-.44Z"/><path class="cls-1" d="M145.21,19.76c.68-.12.94-.42.94-1.71V10.57c0-1.38-.28-1.6-.85-1.69a5,5,0,0,0-.7-.05.73.73,0,0,1,0-.46c.85,0,1.55.06,2.3.06s1.45,0,2.32-.06a.73.73,0,0,1,0,.46,5.87,5.87,0,0,0-.72.05c-.56,0-.82.37-.82,1.69v7.48c0,1.36.26,1.61.95,1.71a4.62,4.62,0,0,0,.59,0,.66.66,0,0,1,0,.44l-2.25,0-2.37,0a.65.65,0,0,1,0-.44A4.85,4.85,0,0,0,145.21,19.76Z"/><path class="cls-1" d="M151.8,19.76a.8.8,0,0,0,.42-.19c.42-.38.59-1.2.59-2.58v-6.3a1.85,1.85,0,0,0-.41-1.37,1.65,1.65,0,0,0-.91-.44,4.27,4.27,0,0,0-.63-.05c-.05-.06-.05-.4,0-.44.64,0,1.36,0,1.8,0s.75,0,1.09,0a40.75,40.75,0,0,0,3.67,4.33l1.67,1.86c1.08,1.21,2,2.17,2.79,3h0V11.25c0-1-.12-1.81-.72-2.18a1.61,1.61,0,0,0-.69-.19,4.67,4.67,0,0,0-.51-.05c-.07-.06-.05-.42,0-.44.8,0,1.5,0,2.23,0s1.27,0,1.9,0c.07,0,.07.38,0,.44a3.12,3.12,0,0,0-.4.05,1.33,1.33,0,0,0-.6.17,3,3,0,0,0-.55,2.17v5.66c0,1.63,0,3.25,0,3.48,0,.05-.28.08-.37.08s-1.51-1.71-2.28-2.56l-4.75-5.29c-.24-.26-1.51-1.74-1.74-2.07h0V17c0,1.31.07,2.15.56,2.57a1.32,1.32,0,0,0,.73.22,5,5,0,0,0,.63,0c0,.07,0,.41,0,.44l-2.18,0c-.75,0-1.37,0-2,0-.07,0-.07-.38,0-.44A6.35,6.35,0,0,0,151.8,19.76Z"/><path class="cls-1" d="M167.32,18.37a6,6,0,0,1-1.53-4,6.14,6.14,0,0,1,1.46-4.07,6.79,6.79,0,0,1,5.31-2.2,10.87,10.87,0,0,1,2.61.37c.42.11.93.25,1.28.31.05.88.19,2,.27,2.5,0,.07-.38.07-.43,0-.47-2-2-2.66-3.84-2.66-3.23,0-4.85,2.57-4.85,5.29,0,3.17,1.78,6,5.1,6a3.34,3.34,0,0,0,2.09-.54,2.4,2.4,0,0,0,.14-1V17c0-1.06-.21-1.23-1.05-1.32a6.11,6.11,0,0,0-.7,0c-.07,0-.07-.42,0-.44.67,0,1.54,0,2.45,0,.75,0,1.44,0,2,0,.07,0,.07.38,0,.45l-.42,0c-.47.05-.71.35-.71,1.32v1.64a.89.89,0,0,0,.33.75.36.36,0,0,1,0,.25,9.1,9.1,0,0,0-.91.24,12,12,0,0,1-3.35.56A6.87,6.87,0,0,1,167.32,18.37Z"/><path class="cls-1" d="M182.83,19.76c.62-.05.89-.28.89-1.69V9.38c0-.26,0-.33-.27-.33h-1.62a2.51,2.51,0,0,0-1.85.47,3.13,3.13,0,0,0-.57,1.14.61.61,0,0,1-.46-.07c.2-1,.34-1.85.44-2.71a.62.62,0,0,1,.33,0c.16.53.66.55,1.29.55h7.49c.78,0,1.08-.13,1.23-.55a.52.52,0,0,1,.35,0,23.16,23.16,0,0,0-.21,2.78.59.59,0,0,1-.47,0,2.38,2.38,0,0,0-.28-1.13c-.26-.33-.76-.51-1.64-.51h-1.93c-.23,0-.26.07-.26.33v8.69c0,1.41.26,1.64.92,1.69l.66,0a.66.66,0,0,1,0,.44l-2.31,0-2.47,0c-.06,0-.07-.4,0-.44Z"/><path class="cls-1" d="M191.13,14.37a6.17,6.17,0,0,1,6.22-6.28,6,6,0,0,1,6.12,6.13,6.17,6.17,0,0,1-12.34.15Zm6.41,5.55c2.33,0,4.12-1.88,4.12-5.18,0-2.76-1.41-6.11-4.55-6.11-2.18,0-4.17,1.73-4.17,5.22C192.94,16.47,194.34,19.92,197.54,19.92Z"/><path class="cls-1" d="M205.72,19.76a.8.8,0,0,0,.42-.19c.42-.38.59-1.2.59-2.58v-6.3a1.85,1.85,0,0,0-.41-1.37,1.65,1.65,0,0,0-.91-.44,4.27,4.27,0,0,0-.63-.05c-.05-.06-.05-.4,0-.44.64,0,1.36,0,1.79,0s.75,0,1.1,0a40.75,40.75,0,0,0,3.67,4.33L213,14.58c1.08,1.21,2,2.17,2.79,3h0V11.25c0-1-.12-1.81-.72-2.18a1.62,1.62,0,0,0-.7-.19,4.6,4.6,0,0,0-.5-.05c-.07-.06,0-.42,0-.44.8,0,1.5,0,2.23,0s1.27,0,1.9,0c.07,0,.07.38,0,.44a3.12,3.12,0,0,0-.4.05,1.33,1.33,0,0,0-.6.17,2.92,2.92,0,0,0-.55,2.17v5.66c0,1.63,0,3.25.05,3.48,0,.05-.28.08-.37.08l-2.28-2.56-4.75-5.29c-.24-.26-1.51-1.74-1.74-2.07h0V17c0,1.31.07,2.15.56,2.57a1.32,1.32,0,0,0,.73.22,5,5,0,0,0,.63,0,.65.65,0,0,1,0,.44l-2.18,0c-.75,0-1.38,0-2.06,0-.07,0-.07-.38,0-.44A6.35,6.35,0,0,0,205.72,19.76Z"/><path class="cls-1" d="M47.65,31.34l-1.21,0a.28.28,0,0,1,0-.22,2,2,0,0,0,.35,0c.28-.05.42-.15.42-.8V26.6c0-.66-.14-.8-.48-.83l-.29,0s0-.21,0-.22l1.14,0,1.14,0a.41.41,0,0,1,0,.22,2.69,2.69,0,0,0-.34,0c-.29.05-.42.16-.42.83v3.48c0,.46,0,.7.28.84a1.82,1.82,0,0,0,1,.16,1.85,1.85,0,0,0,1-.16,1.51,1.51,0,0,0,.56-.85s.2,0,.2,0-.19.75-.34,1.26c-.58,0-1.34,0-2.15,0Z"/><path class="cls-1" d="M51.5,31.15h.17c.29,0,.37-.06.37-.52V28.71c0-.32,0-.4-.38-.58,0,0,0-.13,0-.15a5.32,5.32,0,0,0,.75-.28.76.76,0,0,1,.23-.1.07.07,0,0,1,.07.08c0,.15,0,.95,0,1.13v1.81c0,.46.1.5.38.52h.16a.28.28,0,0,1,0,.22c-.27,0-.55,0-.85,0s-.59,0-.87,0A.33.33,0,0,1,51.5,31.15Zm1.27-5.23a.43.43,0,1,1-.43-.43A.43.43,0,0,1,52.77,25.92Z"/><path class="cls-1" d="M55,31.34c-.17-.05-.34-.14-.38-.14a.39.39,0,0,0-.15.11l-.07.06a.37.37,0,0,1-.14-.07,7,7,0,0,0,.07-1.13V26.25c0-.45,0-.53-.4-.68,0,0,0-.13,0-.15.25-.09.59-.21.75-.29S54.93,25,55,25a.07.07,0,0,1,.07.08c0,.16,0,.88,0,1.07V28s0,0,0,0,.2-.13.36-.22a1.6,1.6,0,0,1,2.39,1.51,2,2,0,0,1-2,2.09A2.48,2.48,0,0,1,55,31.34Zm0-2.58v1.51a1.08,1.08,0,0,0,.25.69.83.83,0,0,0,.63.26c.86,0,1.2-.78,1.2-1.54a1.48,1.48,0,0,0-1.33-1.62,1.12,1.12,0,0,0-.64.22C55,28.37,55,28.48,55,28.76Z"/><path class="cls-1" d="M60.51,28.35a.59.59,0,0,0-.37-.13.56.56,0,0,0-.32.17.94.94,0,0,0-.2.64v1.59c0,.45.09.5.46.52h.31s0,.2,0,.21l-1.07,0-.91,0s0-.19,0-.21h.14c.34,0,.43-.07.43-.52V28.67c0-.28-.12-.36-.38-.49,0,0,0-.13,0-.14.27-.11.53-.24.72-.34a1.11,1.11,0,0,1,.25-.11s.06,0,.06.08c0,.22,0,.44,0,.66,0,0,0,0,0,0,.25-.29.6-.69,1-.69a.39.39,0,0,1,.44.38.37.37,0,0,1-.38.38A.28.28,0,0,1,60.51,28.35Z"/><path class="cls-1" d="M65.09,30.92s.07.1.07.13a1.14,1.14,0,0,1-.78.41.6.6,0,0,1-.49-.29.92.92,0,0,1-.13-.21l-.38.26a1.39,1.39,0,0,1-.75.24.94.94,0,0,1-.62-.19.82.82,0,0,1-.27-.61c0-.38.16-.58.69-.81.14-.06.83-.31,1-.37s.32-.11.32-.3v-.37a.65.65,0,0,0-.72-.75c-.32,0-.61.19-.61.47a.31.31,0,0,1-.09.26.8.8,0,0,1-.44.15.12.12,0,0,1-.13-.14c0-.38.42-.65.94-.93a1.45,1.45,0,0,1,.74-.22.89.89,0,0,1,1,.86c0,.64,0,1.28,0,1.93,0,.36.08.61.33.61A.45.45,0,0,0,65.09,30.92ZM63,31.05a1.13,1.13,0,0,0,.73-.33s.06-.14.06-.28v-.71c0-.05,0-.08-.05-.08a2.71,2.71,0,0,0-.41.12c-.49.17-.92.34-.92.74A.55.55,0,0,0,63,31.05Z"/><path class="cls-1" d="M67.82,28.35a.57.57,0,0,0-.37-.13.51.51,0,0,0-.31.17.94.94,0,0,0-.21.64v1.59c0,.45.09.5.46.52h.31s0,.2,0,.21l-1.07,0-.91,0a.37.37,0,0,1,0-.21h.14c.34,0,.43-.07.43-.52V28.67c0-.28-.11-.36-.38-.49,0,0,0-.13,0-.14a7.15,7.15,0,0,0,.72-.34,1.34,1.34,0,0,1,.25-.11s.06,0,.06.08c0,.22,0,.44,0,.66,0,0,0,0,0,0,.26-.29.61-.69,1-.69a.4.4,0,0,1,.44.38.37.37,0,0,1-.39.38A.28.28,0,0,1,67.82,28.35Z"/><path class="cls-1" d="M69.34,33a.38.38,0,0,1,.38-.39c.12,0,.33.11.43-.08.24-.46.35-.72.48-1a1.4,1.4,0,0,0,.09-.3,1.65,1.65,0,0,0-.16-.51c-.16-.41-.63-1.66-.87-2.26-.11-.28-.21-.46-.51-.5h-.12a.33.33,0,0,1,0-.22c.31,0,.6,0,.91,0l.76,0a.28.28,0,0,1,0,.22h-.12c-.21,0-.32.09-.32.17a.91.91,0,0,0,.07.31c.19.54.3.79.75,2h0c.48-1.09.66-1.54.72-1.75a1.67,1.67,0,0,0,.09-.45c0-.12-.06-.21-.28-.24h-.13a.28.28,0,0,1,0-.22l.77,0c.22,0,.42,0,.65,0,0,0,0,.2,0,.22h-.12c-.31,0-.45.28-.66.73l-.38.84c-.14.3-1.32,3-1.53,3.45a.58.58,0,0,1-.55.41A.37.37,0,0,1,69.34,33Z"/><path class="cls-1" d="M74.08,31.09a1.48,1.48,0,0,1-1.27,1.44s-.09-.16-.06-.21a1,1,0,0,0,.85-.87c0-.34-.29-.43-.49-.46a.36.36,0,0,1-.33-.37.48.48,0,0,1,.54-.45A.86.86,0,0,1,74.08,31.09Z"/><path class="cls-1" d="M80.41,29.25c0-.09-.2-.11-.33-.11h-1.4c-.1,0-.23,0-.26.1l-.25.75a3.47,3.47,0,0,0-.2.87.27.27,0,0,0,.21.26l.44,0s0,.2,0,.22c-.27,0-.58,0-1,0s-.64,0-.93,0a.41.41,0,0,1,0-.22l.26,0c.3-.05.42-.17.56-.5s.32-.79.55-1.43l1-2.68a2.18,2.18,0,0,0,.17-.64.71.71,0,0,0,0-.16,1.09,1.09,0,0,0,.46-.35h.14c0,.19.26.77.33,1L81.43,30c.32.9.43,1.06.78,1.17a1,1,0,0,0,.27,0s0,.2,0,.22c-.34,0-.65,0-1,0s-.79,0-1.13,0a.33.33,0,0,1,0-.22l.33,0c.15,0,.27-.07.27-.2a2.34,2.34,0,0,0-.12-.48Zm-.25-.74-.58-1.64c0-.1-.11-.31-.16-.51h0c-.07.23-.13.39-.17.52l-.59,1.73c0,.09-.06.18.06.18h1.4C80.24,28.79,80.2,28.63,80.16,28.51Z"/><path class="cls-1" d="M85.09,28.35a.57.57,0,0,0-.37-.13.56.56,0,0,0-.32.17,1,1,0,0,0-.2.64v1.59c0,.45.09.5.46.52H85s0,.2,0,.21l-1.07,0-.91,0a.37.37,0,0,1,0-.21h.14c.34,0,.43-.07.43-.52V28.67c0-.28-.11-.36-.38-.49,0,0,0-.13,0-.14.27-.11.53-.24.72-.34a1.11,1.11,0,0,1,.25-.11s.06,0,.06.08c0,.22,0,.44,0,.66,0,0,0,0,0,0,.25-.29.61-.69,1-.69a.39.39,0,0,1,.43.38.37.37,0,0,1-.38.38A.28.28,0,0,1,85.09,28.35Z"/><path class="cls-1" d="M86.72,28.19h-.3a.18.18,0,0,1,0-.16,2.62,2.62,0,0,0,.59-.39,2.43,2.43,0,0,0,.43-.59s.13,0,.14,0v.61c0,.08,0,.11.13.11h1.07a.53.53,0,0,1,0,.41H87.69c-.1,0-.13,0-.13.15v1.87c0,.53.19.84.59.84a.84.84,0,0,0,.52-.2s.12.11.11.13a1.42,1.42,0,0,1-1,.48c-.64,0-.86-.47-.86-1.08v-2C86.9,28.21,86.87,28.19,86.72,28.19Z"/><path class="cls-1" d="M92.59,26.15a3.49,3.49,0,0,1,2.25-.77,5.53,5.53,0,0,1,1.63.29,1.38,1.38,0,0,0,.26.06c0,.42,0,.71.1,1.24a.24.24,0,0,1-.22,0,1.6,1.6,0,0,0-1.79-1.33,2.39,2.39,0,0,0-2.41,2.66,2.65,2.65,0,0,0,2.53,2.89,1.77,1.77,0,0,0,1.76-1.36.27.27,0,0,1,.21.05,10.66,10.66,0,0,1-.3,1.21l-.29.11a5.13,5.13,0,0,1-1.49.25,3.5,3.5,0,0,1-2.15-.63,3,3,0,0,1-1.17-2.44A2.86,2.86,0,0,1,92.59,26.15Z"/><path class="cls-1" d="M99.47,27.65a1.83,1.83,0,0,1,1.91,1.89,1.87,1.87,0,0,1-1.89,1.92,1.82,1.82,0,0,1-1.91-1.87A1.88,1.88,0,0,1,99.47,27.65Zm.06,3.57c.8,0,1.08-.88,1.08-1.57s-.33-1.76-1.19-1.76-1.07.76-1.07,1.6S98.7,31.22,99.53,31.22Z"/><path class="cls-1" d="M101.94,31.15h.12c.33,0,.42-.07.42-.52V26.29c0-.49,0-.57-.4-.72,0,0,0-.13,0-.15a6.84,6.84,0,0,0,.76-.29,1.16,1.16,0,0,1,.25-.12s.07,0,.07.08,0,.68,0,.87v4.66c0,.45.11.48.42.52h.13s0,.2,0,.21l-.86,0-.88,0S101.9,31.17,101.94,31.15Z"/><path class="cls-1" d="M104.59,31.15h.13c.32,0,.42-.07.42-.52V26.29c0-.49,0-.57-.41-.72,0,0,0-.13,0-.15a6.15,6.15,0,0,0,.76-.29,1.14,1.14,0,0,1,.26-.12s.06,0,.06.08,0,.68,0,.87v4.66c0,.45.1.48.42.52h.13s0,.2,0,.21l-.87,0-.87,0S104.55,31.17,104.59,31.15Z"/><path class="cls-1" d="M107.82,29.07c-.11,0-.16.05-.16.27,0,.93.53,1.64,1.33,1.64a1.29,1.29,0,0,0,1-.5.2.2,0,0,1,.14.11,1.72,1.72,0,0,1-1.47.87,1.46,1.46,0,0,1-1.26-.6A2.13,2.13,0,0,1,107,29.7a1.87,1.87,0,0,1,1.74-2.05,1.23,1.23,0,0,1,1.33,1.18.33.33,0,0,1,0,.19s-.09.05-.19.05Zm-.06-.26h.58a7.33,7.33,0,0,0,.94,0c.09,0,.13-.07.13-.18a.66.66,0,0,0-.73-.66,1,1,0,0,0-1,.87S107.72,28.81,107.76,28.81Z"/><path class="cls-1" d="M113.56,27.81a.41.41,0,0,1,.21.38c0,.17-.1.34-.24.34s-.33-.25-.44-.34a.91.91,0,0,0-.64-.27,1.3,1.3,0,0,0-1.14,1.44,1.46,1.46,0,0,0,1.42,1.56,1.27,1.27,0,0,0,1-.46s.15.09.15.13a1.83,1.83,0,0,1-1.55.87,1.63,1.63,0,0,1-1.16-.46,1.76,1.76,0,0,1-.52-1.27,2,2,0,0,1,2.09-2.08A1.88,1.88,0,0,1,113.56,27.81Z"/><path class="cls-1" d="M114.88,28.19h-.31s0-.13,0-.16a2.41,2.41,0,0,0,.59-.39,2.43,2.43,0,0,0,.43-.59s.13,0,.15,0v.61c0,.08,0,.11.13.11h1.07a.64.64,0,0,1,0,.41h-1.07c-.11,0-.13,0-.13.15v1.87c0,.53.19.84.58.84a.82.82,0,0,0,.52-.2s.12.11.12.13a1.45,1.45,0,0,1-1,.48c-.65,0-.86-.47-.86-1.08v-2C115.06,28.21,115,28.19,114.88,28.19Z"/><path class="cls-1" d="M117.69,31.15h.18c.28,0,.36-.06.36-.52V28.71c0-.32,0-.4-.37-.58,0,0,0-.13,0-.15a5.12,5.12,0,0,0,.74-.28c.15-.07.19-.1.23-.1s.07,0,.07.08,0,.95,0,1.13v1.81c0,.46.11.5.38.52h.16s0,.2,0,.22c-.28,0-.55,0-.85,0s-.59,0-.88,0A.41.41,0,0,1,117.69,31.15ZM119,25.92a.43.43,0,0,1-.43.43.43.43,0,0,1,0-.86A.43.43,0,0,1,119,25.92Z"/><path class="cls-1" d="M122,27.65a1.83,1.83,0,0,1,1.91,1.89A1.87,1.87,0,0,1,122,31.46a1.82,1.82,0,0,1-1.91-1.87A1.88,1.88,0,0,1,122,27.65Zm.06,3.57c.8,0,1.08-.88,1.08-1.57s-.33-1.76-1.19-1.76-1.07.76-1.07,1.6S121.23,31.22,122.06,31.22Z"/><path class="cls-1" d="M125.64,29v1.67c0,.45.1.5.37.52h.16s0,.2,0,.22c-.27,0-.54,0-.84,0s-.59,0-.88,0c0,0,0-.2,0-.22h.16c.28,0,.39-.07.39-.52V28.74c0-.36,0-.44-.38-.62,0,0,0-.13,0-.15a5.16,5.16,0,0,0,.68-.24,1.51,1.51,0,0,1,.3-.14s.06,0,.06.08,0,.39,0,.43,0,.09,0,.09a2.43,2.43,0,0,1,1.34-.54c.72,0,1,.51,1,1.13v1.84c0,.45.1.5.38.52h.17a.28.28,0,0,1,0,.22c-.28,0-.56,0-.86,0s-.59,0-.86,0a.28.28,0,0,1,0-.22H127c.28,0,.37-.07.37-.52V28.88a.71.71,0,0,0-.8-.79,1.42,1.42,0,0,0-.82.32C125.64,28.51,125.64,28.7,125.64,29Z"/><path class="cls-1" d="M129.55,30.25c.12.51.43.95,1,.95a.56.56,0,0,0,.63-.58c0-.42-.37-.61-.75-.81s-.93-.52-.93-1.12a1.1,1.1,0,0,1,1.25-1,1.78,1.78,0,0,1,.85.2c.06.28.07.46.11.78a.26.26,0,0,1-.21,0,.82.82,0,0,0-.84-.72.54.54,0,0,0-.6.54c0,.39.36.57.72.75s1,.51,1,1.19-.52,1.06-1.34,1.06a1.83,1.83,0,0,1-1-.27c-.05-.39-.08-.63-.1-.92C129.39,30.25,129.53,30.22,129.55,30.25Z"/><path class="cls-1" d="M133.89,31.09a1.48,1.48,0,0,1-1.27,1.44c-.05,0-.08-.16-.06-.21a1,1,0,0,0,.85-.87c0-.34-.29-.43-.49-.46a.36.36,0,0,1-.32-.37.47.47,0,0,1,.53-.45A.86.86,0,0,1,133.89,31.09Z"/><path class="cls-1" d="M140.24,30.92s.07.1.07.13a1.12,1.12,0,0,1-.78.41.61.61,0,0,1-.49-.29,1.53,1.53,0,0,1-.13-.21l-.37.26a1.45,1.45,0,0,1-.76.24.94.94,0,0,1-.62-.19.82.82,0,0,1-.27-.61c0-.38.16-.58.69-.81.14-.06.84-.31,1-.37s.32-.11.32-.3v-.37a.66.66,0,0,0-.73-.75c-.32,0-.61.19-.61.47a.31.31,0,0,1-.09.26.77.77,0,0,1-.43.15.13.13,0,0,1-.14-.14c0-.38.42-.65.94-.93a1.5,1.5,0,0,1,.74-.22.9.9,0,0,1,1,.86c0,.64,0,1.28,0,1.93,0,.36.08.61.34.61A.45.45,0,0,0,140.24,30.92Zm-2.11.13a1.11,1.11,0,0,0,.73-.33s.06-.14.06-.28v-.71c0-.05,0-.08,0-.08a2.71,2.71,0,0,0-.41.12c-.5.17-.93.34-.93.74A.56.56,0,0,0,138.13,31.05Z"/><path class="cls-1" d="M142,29v1.67c0,.45.1.5.38.52h.15s0,.2,0,.22c-.26,0-.54,0-.84,0s-.59,0-.88,0a.28.28,0,0,1,0-.22H141c.29,0,.39-.07.39-.52V28.74c0-.36,0-.44-.38-.62a.26.26,0,0,1,0-.15,4.69,4.69,0,0,0,.68-.24,1.84,1.84,0,0,1,.3-.14s.06,0,.06.08,0,.39,0,.43,0,.09.05.09a2.43,2.43,0,0,1,1.34-.54c.72,0,1,.51,1,1.13v1.84c0,.45.11.5.38.52H145a.28.28,0,0,1,0,.22c-.28,0-.55,0-.85,0s-.59,0-.87,0a.41.41,0,0,1,0-.22h.17c.27,0,.36-.07.36-.52V28.88a.71.71,0,0,0-.79-.79,1.46,1.46,0,0,0-.83.32C142,28.51,142,28.7,142,29Z"/><path class="cls-1" d="M148.25,27.68V26.29c0-.49-.05-.57-.41-.72a.38.38,0,0,1,0-.15,7.27,7.27,0,0,0,.75-.28,1.36,1.36,0,0,1,.26-.13.07.07,0,0,1,.07.08c0,.13,0,.71,0,.89v4.37c0,.5,0,.67.29.67a2,2,0,0,0,.3,0s0,.2,0,.22-.4.09-.64.15-.48.16-.52.16-.09-.08-.09-.15V31a0,0,0,0,0,0,0l-.19.13a1.79,1.79,0,0,1-1,.36,1.62,1.62,0,0,1-1.59-1.74,2,2,0,0,1,2.1-2.07,1.85,1.85,0,0,1,.5.06l.17,0S148.25,27.72,148.25,27.68Zm-.11,3.07a.41.41,0,0,0,.11-.3v-1.8a.73.73,0,0,0-.14-.44.88.88,0,0,0-.72-.29c-.69,0-1.23.55-1.23,1.5A1.4,1.4,0,0,0,147.48,31,1.13,1.13,0,0,0,148.14,30.75Z"/><path class="cls-1" d="M152.17,31.15l.28,0c.28,0,.42-.19.42-.8v-3.8c0-.55-.12-.68-.46-.72l-.27,0s0-.2,0-.22H153c.41,0,.74,0,1.11,0a3.08,3.08,0,0,1,1.41.29,1.14,1.14,0,0,1,.62,1.07c0,.71-.53,1.07-1.17,1.28h0a1.65,1.65,0,0,1,1.68,1.56c0,1-.77,1.64-2.3,1.64-.33,0-.74,0-1.12,0s-.71,0-1,0A.28.28,0,0,1,152.17,31.15ZM153.65,26V28c0,.12.1.12.38.12.78,0,1.34-.26,1.34-1.2s-.62-1.16-1.29-1.16C153.75,25.79,153.65,25.85,153.65,26Zm0,4.2a1.07,1.07,0,0,0,.18.77.93.93,0,0,0,.63.16,1.19,1.19,0,0,0,1.35-1.21c0-1-.55-1.48-1.66-1.48-.4,0-.5,0-.5.1Z"/><path class="cls-1" d="M159.22,27.65a1.83,1.83,0,0,1,1.91,1.89,1.87,1.87,0,0,1-1.89,1.92,1.82,1.82,0,0,1-1.91-1.87A1.88,1.88,0,0,1,159.22,27.65Zm.06,3.57c.8,0,1.08-.88,1.08-1.57s-.33-1.76-1.19-1.76c-.71,0-1.07.76-1.07,1.6S158.45,31.22,159.28,31.22Z"/><path class="cls-1" d="M162,28.19h-.31a.29.29,0,0,1,0-.16,2.71,2.71,0,0,0,.6-.39,2.43,2.43,0,0,0,.42-.59s.13,0,.15,0v.61c0,.08,0,.11.13.11H164a.64.64,0,0,1,0,.41H163c-.1,0-.13,0-.13.15v1.87c0,.53.19.84.58.84a.85.85,0,0,0,.53-.2s.12.11.11.13a1.43,1.43,0,0,1-1,.48c-.65,0-.86-.47-.86-1.08v-2C162.18,28.21,162.15,28.19,162,28.19Z"/><path class="cls-1" d="M168.12,30.92s.07.1.07.13a1.12,1.12,0,0,1-.78.41.6.6,0,0,1-.49-.29.92.92,0,0,1-.13-.21l-.38.26a1.39,1.39,0,0,1-.75.24.94.94,0,0,1-.62-.19.82.82,0,0,1-.27-.61c0-.38.16-.58.69-.81.14-.06.83-.31,1-.37s.32-.11.32-.3v-.37a.66.66,0,0,0-.73-.75c-.32,0-.61.19-.61.47a.31.31,0,0,1-.09.26.8.8,0,0,1-.44.15.12.12,0,0,1-.13-.14c0-.38.42-.65.94-.93a1.47,1.47,0,0,1,.74-.22.9.9,0,0,1,1,.86c0,.64,0,1.28,0,1.93,0,.36.08.61.33.61A.45.45,0,0,0,168.12,30.92Zm-2.11.13a1.13,1.13,0,0,0,.73-.33s.06-.14.06-.28v-.71c0-.05,0-.08,0-.08a2.73,2.73,0,0,0-.42.12c-.49.17-.92.34-.92.74A.56.56,0,0,0,166,31.05Z"/><path class="cls-1" d="M169.88,29v1.67c0,.45.1.5.37.52h.16a.28.28,0,0,1,0,.22c-.27,0-.54,0-.84,0s-.59,0-.88,0c0,0-.05-.2,0-.22h.16c.28,0,.39-.07.39-.52V28.74c0-.36-.05-.44-.38-.62,0,0,0-.13,0-.15a5.16,5.16,0,0,0,.68-.24,1.51,1.51,0,0,1,.3-.14s0,0,0,.08v.43s0,.09.05.09a2.43,2.43,0,0,1,1.34-.54c.72,0,1,.51,1,1.13v1.84c0,.45.1.5.38.52h.17a.33.33,0,0,1,0,.22c-.28,0-.56,0-.86,0s-.59,0-.86,0a.28.28,0,0,1,0-.22h.16c.28,0,.37-.07.37-.52V28.88a.72.72,0,0,0-.8-.79,1.42,1.42,0,0,0-.82.32C169.88,28.51,169.88,28.7,169.88,29Z"/><path class="cls-1" d="M173.65,31.15h.18c.28,0,.36-.06.36-.52V28.71c0-.32-.05-.4-.37-.58,0,0,0-.13,0-.15a5.12,5.12,0,0,0,.74-.28c.15-.07.19-.1.23-.1s.07,0,.07.08,0,.95,0,1.13v1.81c0,.46.11.5.38.52h.16s0,.2,0,.22c-.28,0-.55,0-.85,0s-.59,0-.88,0A.41.41,0,0,1,173.65,31.15Zm1.27-5.23a.43.43,0,0,1-.43.43.43.43,0,0,1,0-.86A.43.43,0,0,1,174.92,25.92Z"/><path class="cls-1" d="M179,27.81a.41.41,0,0,1,.21.38c0,.17-.11.34-.24.34s-.33-.25-.44-.34a.91.91,0,0,0-.64-.27,1.3,1.3,0,0,0-1.14,1.44,1.46,1.46,0,0,0,1.42,1.56,1.27,1.27,0,0,0,1-.46s.15.09.15.13a1.83,1.83,0,0,1-1.55.87,1.63,1.63,0,0,1-1.16-.46,1.76,1.76,0,0,1-.52-1.27,2,2,0,0,1,2.09-2.08A1.88,1.88,0,0,1,179,27.81Z"/><path class="cls-1" d="M183.4,30.92s.06.1.06.13a1.12,1.12,0,0,1-.78.41.58.58,0,0,1-.48-.29.66.66,0,0,1-.13-.21l-.38.26a1.39,1.39,0,0,1-.75.24.92.92,0,0,1-.62-.19.83.83,0,0,1-.28-.61c0-.38.17-.58.7-.81.14-.06.83-.31,1-.37s.31-.11.31-.3v-.37a.66.66,0,0,0-.73-.75c-.31,0-.61.19-.61.47,0,.11,0,.21-.08.26a.8.8,0,0,1-.44.15.13.13,0,0,1-.14-.14c0-.38.42-.65,1-.93a1.44,1.44,0,0,1,.73-.22.9.9,0,0,1,1,.86c0,.64,0,1.28,0,1.93,0,.36.07.61.33.61A.48.48,0,0,0,183.4,30.92Zm-2.11.13a1.13,1.13,0,0,0,.73-.33s.06-.14.06-.28v-.71c0-.05,0-.08,0-.08a2.71,2.71,0,0,0-.41.12c-.5.17-.93.34-.93.74A.56.56,0,0,0,181.29,31.05Z"/><path class="cls-1" d="M184,31.15h.13c.32,0,.42-.07.42-.52V26.29c0-.49-.05-.57-.41-.72,0,0,0-.13,0-.15a6.15,6.15,0,0,0,.76-.29,1.14,1.14,0,0,1,.26-.12s.06,0,.06.08,0,.68,0,.87v4.66c0,.45.1.48.42.52h.13s0,.2,0,.21l-.87,0-.87,0S183.94,31.17,184,31.15Z"/><path class="cls-1" d="M189.37,30.44a2.93,2.93,0,0,1-.76-2,3,3,0,0,1,.72-2,3.34,3.34,0,0,1,2.61-1.08,5.87,5.87,0,0,1,1.29.18l.62.16c0,.43.1,1,.14,1.23a.26.26,0,0,1-.21,0,1.71,1.71,0,0,0-1.89-1.3,2.39,2.39,0,0,0-2.39,2.6c0,1.56.88,2.95,2.51,2.95a1.59,1.59,0,0,0,1-.27,1.15,1.15,0,0,0,.07-.49v-.66c0-.53-.11-.61-.52-.66l-.34,0s0-.21,0-.22l1.2,0,1,0s0,.19,0,.23h-.21c-.23,0-.35.18-.35.66v.8A.43.43,0,0,0,194,31a.13.13,0,0,1,0,.12l-.44.12a6.25,6.25,0,0,1-1.65.27A3.35,3.35,0,0,1,189.37,30.44Z"/><path class="cls-1" d="M198.58,30.92s.07.1.07.13a1.12,1.12,0,0,1-.78.41.6.6,0,0,1-.49-.29.92.92,0,0,1-.13-.21l-.37.26a1.45,1.45,0,0,1-.76.24.94.94,0,0,1-.62-.19.82.82,0,0,1-.27-.61c0-.38.16-.58.69-.81.14-.06.84-.31,1-.37s.32-.11.32-.3v-.37a.66.66,0,0,0-.73-.75c-.32,0-.61.19-.61.47a.31.31,0,0,1-.09.26.8.8,0,0,1-.43.15.13.13,0,0,1-.14-.14c0-.38.42-.65.94-.93a1.5,1.5,0,0,1,.74-.22.9.9,0,0,1,1,.86c0,.64,0,1.28,0,1.93,0,.36.08.61.34.61A.45.45,0,0,0,198.58,30.92Zm-2.11.13a1.11,1.11,0,0,0,.73-.33c.05,0,.06-.14.06-.28v-.71c0-.05,0-.08,0-.08a2.42,2.42,0,0,0-.41.12c-.5.17-.93.34-.93.74A.56.56,0,0,0,196.47,31.05Z"/><path class="cls-1" d="M201.19,28.35a.59.59,0,0,0-.37-.13.51.51,0,0,0-.32.17.94.94,0,0,0-.21.64v1.59c0,.45.1.5.47.52h.31a.37.37,0,0,1,0,.21l-1.07,0-.91,0s0-.19,0-.21h.14c.34,0,.42-.07.42-.52V28.67c0-.28-.11-.36-.37-.49,0,0,0-.13,0-.14.27-.11.53-.24.72-.34a1.35,1.35,0,0,1,.24-.11s.06,0,.06.08v.66s0,0,0,0c.26-.29.61-.69,1-.69a.39.39,0,0,1,.44.38.37.37,0,0,1-.39.38A.27.27,0,0,1,201.19,28.35Z"/><path class="cls-1" d="M204.91,27.68V26.29c0-.49,0-.57-.4-.72,0,0,0-.13,0-.15a7.27,7.27,0,0,0,.75-.28,1.45,1.45,0,0,1,.25-.13.07.07,0,0,1,.08.08c0,.13,0,.71,0,.89v4.37c0,.5.05.67.3.67a2,2,0,0,0,.3,0s0,.2,0,.22a5.67,5.67,0,0,0-.64.15l-.52.16c-.07,0-.1-.08-.1-.15V31s0,0,0,0l-.19.13a1.81,1.81,0,0,1-1,.36,1.62,1.62,0,0,1-1.59-1.74,2,2,0,0,1,2.09-2.07,1.88,1.88,0,0,1,.51.06l.17,0S204.91,27.72,204.91,27.68Zm-.11,3.07a.37.37,0,0,0,.11-.3v-1.8a.72.72,0,0,0-.13-.44.9.9,0,0,0-.72-.29c-.7,0-1.24.55-1.24,1.5A1.4,1.4,0,0,0,204.14,31,1.08,1.08,0,0,0,204.8,30.75Z"/><path class="cls-1" d="M207.61,29.07c-.11,0-.16.05-.16.27,0,.93.53,1.64,1.33,1.64a1.28,1.28,0,0,0,1-.5.2.2,0,0,1,.14.11,1.72,1.72,0,0,1-1.46.87,1.46,1.46,0,0,1-1.26-.6,2.07,2.07,0,0,1-.38-1.16,1.87,1.87,0,0,1,1.74-2.05,1.23,1.23,0,0,1,1.33,1.18.33.33,0,0,1,0,.19s-.09.05-.19.05Zm-.06-.26h.58a7.33,7.33,0,0,0,.94,0c.09,0,.13-.07.13-.18a.66.66,0,0,0-.73-.66,1,1,0,0,0-1,.87S207.52,28.81,207.55,28.81Z"/><path class="cls-1" d="M211.76,29v1.67c0,.45.11.5.38.52h.15s0,.2,0,.22c-.27,0-.54,0-.84,0s-.6,0-.89,0a.28.28,0,0,1,0-.22h.17c.28,0,.38-.07.38-.52V28.74c0-.36,0-.44-.38-.62a.26.26,0,0,1,0-.15,4.29,4.29,0,0,0,.68-.24,1.84,1.84,0,0,1,.3-.14s.06,0,.06.08,0,.39,0,.43,0,.09.05.09a2.46,2.46,0,0,1,1.34-.54c.72,0,1,.51,1,1.13v1.84c0,.45.1.5.37.52h.18a.41.41,0,0,1,0,.22c-.29,0-.56,0-.86,0s-.59,0-.87,0a.41.41,0,0,1,0-.22h.17c.27,0,.37-.07.37-.52V28.88a.72.72,0,0,0-.8-.79,1.4,1.4,0,0,0-.82.32C211.76,28.51,211.76,28.7,211.76,29Z"/><path class="cls-1" d="M215.49,30.25c.13.51.44.95,1,.95a.56.56,0,0,0,.64-.58c0-.42-.38-.61-.76-.81s-.93-.52-.93-1.12a1.1,1.1,0,0,1,1.25-1,1.82,1.82,0,0,1,.86.2c.05.28.07.46.1.78,0,0-.18,0-.2,0a.83.83,0,0,0-.84-.72.54.54,0,0,0-.6.54c0,.39.36.57.72.75s1,.51,1,1.19-.53,1.06-1.35,1.06a1.83,1.83,0,0,1-1-.27c0-.39-.07-.63-.09-.92C215.34,30.25,215.47,30.22,215.49,30.25Z"/><path class="cls-2" d="M33.74,27.5a1.22,1.22,0,0,1-.62-1.29c.09-.67.09-1.16-.22-1a1.34,1.34,0,0,0-.43,1.55c.23.89.94,1.47,1.26,1.36C34.33,27.92,34.1,27.68,33.74,27.5Z"/><path class="cls-2" d="M5.07,25.23c-.31-.18-.31.31-.22,1a1.21,1.21,0,0,1-.63,1.29c-.35.18-.59.42,0,.64.32.11,1-.47,1.25-1.36A1.33,1.33,0,0,0,5.07,25.23Z"/><path class="cls-1" d="M0,0V38H38V0ZM32.73,14.6c-.2-.35-.42-.62,0-1a.48.48,0,0,1,.7.1c.39.48.2,1.53-1.09,2.55-.14.11-.24.15-.29.13-.24-.07,0-.31.16-.49C32.65,15.36,33,15,32.73,14.6Zm1.77,1.85a.49.49,0,0,1,.12.7c-.36.44-.63.22-1,0s-.75.09-1.3.51c-.17.15-.41.4-.49.17,0-.05,0-.15.13-.29C33,16.26,34,16.06,34.5,16.45Zm-.73-4.27a2.25,2.25,0,0,1-.26-1.74c.13-.44-.31-.62-.54,0a1.55,1.55,0,0,0,0,1.34c.18.27,0,.44-.22.22a2.05,2.05,0,0,1,.35-2.45c.9-.8,1.52-.67,2,.09A3.35,3.35,0,0,1,35,12.49C34.62,13,34.17,13,33.77,12.18ZM32.94,7c.47-.07.49.15.68.44a.6.6,0,0,1-.22.92c-.43.2-.78-.37-.92-.69S32.73,7,32.94,7Zm2.22-.66a.49.49,0,0,1-.74.23c-.31-.22-.06-.7.1-.94s.55-.09.67,0C35.43,5.94,35.29,6.05,35.16,6.31Zm-18.6,6.07c.06.36.17.62.2.8s-.26,0-.43-.29a5,5,0,0,1-.47-2.9A3.82,3.82,0,0,1,17,7.4c.49-.29.47-.12.4,0a5.32,5.32,0,0,0-.9,2.39A7.63,7.63,0,0,0,16.56,12.38Zm.91,2.3c.05.08.41.28.16.25a.7.7,0,0,1-.48-.2c-.38-.57-.87-.79-1.26-.6s-.65.37-1-.1a.5.5,0,0,1,.16-.69C15.58,13,16.54,13.32,17.47,14.68Zm.24-.36c-.38-.87,0-.94.09-1.06s.05-.24-.11-.28-.55-.11-.57-.5.59-.4.88-.4.41-.25.19-.33a6.06,6.06,0,0,1-1-.18c-.14-.06-.09-.29.06-.45s.75-.11,1-.11.62-.47-.23-.45-1-.26-1-.49.25-.32.43-.43.19-.24,0-.38-.08-.33.1-.45.63,0,.81-.08.13-.35-.12-.4-.54,0-.69-.24.23-.78.64-1A1.57,1.57,0,0,1,19,6.8a1.45,1.45,0,0,1,1,.32,4.74,4.74,0,0,1,1.28,3.44A5.29,5.29,0,0,1,20.5,14a1.65,1.65,0,0,1-1.64.86A1.11,1.11,0,0,1,17.71,14.32Zm3.92-4.55a5.37,5.37,0,0,0-.89-2.39c-.07-.1-.09-.27.39,0A3.78,3.78,0,0,1,22.27,10a5,5,0,0,1-.46,2.9c-.18.27-.47.47-.44.29s.14-.44.21-.8A7.88,7.88,0,0,0,21.63,9.77Zm-1.11,4.91c.92-1.36,1.89-1.69,2.39-1.34a.48.48,0,0,1,.16.69c-.32.47-.61.27-1,.1s-.89,0-1.27.6a.7.7,0,0,1-.48.2C20.11,15,20.46,14.76,20.52,14.68Zm.91-9.54c.52.05,1,.23.94.61a1.15,1.15,0,0,1-1.08.93c-.66.09-1.48,0-1.48-.26s.46-.23.67-.25S21,6.11,21,6s0-.13-.22-.12-1.12.27-1.19,0,.17-.35.42-.45A3.54,3.54,0,0,1,21.43,5.14Zm-3-2.28a.78.78,0,0,1,.88-.21c.52.12.59,1,.63,1.33a2,2,0,0,1-.1,1c-.1.27-.18.38-.36.4s-.15-.17-.13-.46a2.49,2.49,0,0,0-.12-.81c-.11-.19-.3-.52-.29.33,0,.21,0,.56,0,.73s-.07.38-.33.18S18.2,4.54,18.11,4A1.15,1.15,0,0,1,18.39,2.86ZM16.19,5a2.12,2.12,0,0,1,1.19,0,3,3,0,0,1,.88.4c.18.11.3.33.23.47s-.19.24-.65,0a2.51,2.51,0,0,0-.49-.21c-.29-.1-.7-.09-.7.06s.07.13.33.16a4.41,4.41,0,0,1,.73.16c.23.07.47.1.4.33s-.73.37-1.39.29-1.17-.4-1.26-.73S15.5,5.17,16.19,5ZM2.78,5.64c.11-.13.5-.28.67,0s.41.72.09.94a.49.49,0,0,1-.74-.23C2.67,6.05,2.53,5.94,2.78,5.64Zm.12,4c.49-.76,1.11-.89,2-.09A2.06,2.06,0,0,1,5.26,12c-.27.22-.4.05-.22-.22a1.53,1.53,0,0,0,0-1.34c-.22-.62-.67-.44-.53,0a2.22,2.22,0,0,1-.27,1.74c-.4.8-.84.85-1.2.31A3.32,3.32,0,0,1,2.9,9.64ZM4.34,7.41c.2-.29.22-.51.69-.44.21,0,.6.35.46.67s-.5.89-.92.69A.6.6,0,0,1,4.34,7.41Zm1.56,9c-.05,0-.15,0-.29-.13-1.29-1-1.48-2.07-1.09-2.55a.48.48,0,0,1,.7-.1c.44.36.22.63,0,1s.08.76.5,1.31C5.88,16.09,6.14,16.33,5.9,16.4ZM6,17.57c.11.14.15.24.14.29-.08.23-.32,0-.5-.17-.54-.42-.92-.72-1.3-.51s-.62.41-1,0a.49.49,0,0,1,.11-.7C3.94,16.06,5,16.26,6,17.57Zm-2.43,2.1a2.64,2.64,0,0,1,2-.44c.66.18.17.32-.67.63-1.06.4-.35.95-.57,2C4,23.31,2.75,23.45,2.26,23S1.78,20.83,3.56,19.67Zm2.31,7.2c-.36,1.21-1,1.61-1.78,1.52s-1.47-.71-1.25-2.32,1.25-2,2-1.73A2.07,2.07,0,0,1,5.87,26.87Zm-3.51,3.2c.3-.67,1.06-.86,2-.45A2.62,2.62,0,0,1,6,31.39c.13.32.16.54.06.66s-.28.21-.37-.1A1.48,1.48,0,0,0,4.82,31c-.74-.32-1.33.5-2,.19A.85.85,0,0,1,2.36,30.07Zm32.79,5.3c-1.95-.13-4-.18-6.28-.18s-4.33.05-6.28.18v-.94c3.52-.08,4.07-.93,4.07-3.86V18.84h-7.3v2.05a2,2,0,0,1,.87-.89c.43-.19.79-.09.92.22a.4.4,0,0,1-.21.52c-.33.14-.6-.25-1-.11a.94.94,0,0,0-.41.43c-.08.15-.16.33-.22.46v2.14c1-1.27,2.24-1.7,3.1-1.16a1.19,1.19,0,0,1,.47,1.58.77.77,0,0,1-.56.36,1,1,0,0,0-.55-1.22c-.77-.48-1.74-.06-2.46,1.07v3.4c.06-.34.11-.61.13-.69.14-.56.18-.77.48-1s.73-.35,1-.1a.41.41,0,0,1,0,.57c-.27.24-.66,0-.95.22a1,1,0,0,0-.25.56c-.06.38-.16,1.1-.16,1.1l.11-.1A6.5,6.5,0,0,1,21.32,27c1.14-.58,2.17-.66,2.86-1.35.91-.91.36-1.75.55-1.93s.14,0,.23.05a2.29,2.29,0,0,1,0,3.21,3.67,3.67,0,0,1-2.63.8,3.93,3.93,0,0,0-2.54.81,1.58,1.58,0,0,0-.39.61v2.59A5.76,5.76,0,0,0,19.9,31c1.24-1.95,3-2.68,4.18-1.94A1.46,1.46,0,0,1,24.65,31a1,1,0,0,1-.68.44A1.25,1.25,0,0,0,23.29,30c-.95-.6-2.14-.07-3,1.33a13.07,13.07,0,0,1-.9,1.17v2.57a.3.3,0,0,1-.34.27c-.29,0-.4-.16-.4-.27V32.48a11.11,11.11,0,0,1-.89-1.16c-.89-1.4-2.08-1.93-3-1.33A1.24,1.24,0,0,0,14,31.48a1,1,0,0,1-.69-.44,1.47,1.47,0,0,1,.58-1.94c1.17-.74,2.93,0,4.17,1.94.22.34.41.58.54.75V29.17a1.46,1.46,0,0,0-.38-.58,3.9,3.9,0,0,0-2.53-.81,3.68,3.68,0,0,1-2.64-.8,2.3,2.3,0,0,1,0-3.21c.09-.09.18-.11.24-.05s-.37,1,.54,1.93c.69.69,1.72.77,2.86,1.35a6.33,6.33,0,0,1,1.66,1.21l.11.1s-.1-.72-.16-1.1a1,1,0,0,0-.25-.56c-.28-.25-.68,0-1-.22a.41.41,0,0,1,0-.57c.23-.25.6-.23,1,.1s.35.48.48,1c0,.08.07.32.12.64V24.26c-.71-1.1-1.67-1.51-2.43-1a1,1,0,0,0-.56,1.22.77.77,0,0,1-.55-.36,1.19,1.19,0,0,1,.46-1.58c.86-.54,2.11-.12,3.08,1.13V21.51a4.38,4.38,0,0,0-.21-.45,1,1,0,0,0-.41-.43c-.35-.14-.62.25-.95.11a.4.4,0,0,1-.21-.52c.13-.31.48-.41.92-.22a2,2,0,0,1,.86.88v-2H11.35V30.57c0,2.93.55,3.78,4.07,3.86v.94c-1.95-.13-4-.18-6.28-.18s-4.33.05-6.28.18v-.94c3.52-.08,4.07-.93,4.07-3.86V7.44c0-2.93-.55-3.78-4.07-3.86v-1c2,.13,4.07.17,6.28.17s4.28,0,6.28-.17v1c-3.52.08-4.07.93-4.07,3.86V17.53h7.27v-.85c0-.9-1-1.34-2.1-1.34-.68,0-1.14.26-1.21.68s-.07.75-.65.75a.49.49,0,0,1-.47-.53c0-.62.83-1.19,2.47-1.19,1.29,0,2.05.31,2.33,1,.29-.65,1.05-1,2.33-1,1.65,0,2.47.57,2.47,1.19a.49.49,0,0,1-.47.53c-.57,0-.57-.35-.64-.75s-.53-.68-1.22-.68c-1.07,0-2.1.44-2.1,1.34v.85h7.3V7.44c0-2.93-.55-3.78-4.07-3.86v-1c1.95.13,4.07.17,6.28.17s4.28,0,6.28-.17v1c-3.52.08-4.08.93-4.08,3.86V30.57c0,2.93.56,3.78,4.08,3.86Zm0-4.18c-.71.31-1.31-.51-2-.19a1.49,1.49,0,0,0-.88.95c-.08.31-.26.22-.36.1s-.08-.34.05-.66a2.63,2.63,0,0,1,1.66-1.77c.93-.41,1.69-.22,2,.45A.85.85,0,0,1,35.19,31.19Zm-2.07-6.85c.76-.27,1.78.13,2,1.73s-.49,2.23-1.24,2.32-1.43-.31-1.78-1.52A2.07,2.07,0,0,1,33.12,24.34ZM35.71,23c-.49.42-1.76.28-2.07-1.18-.22-1,.49-1.59-.58-2-.84-.31-1.33-.45-.66-.63a2.64,2.64,0,0,1,2,.44C36.19,20.83,36.2,22.6,35.71,23Z"/><path class="cls-1" d="M33.74,27.5a1.22,1.22,0,0,1-.62-1.29c.09-.67.09-1.16-.22-1a1.34,1.34,0,0,0-.43,1.55c.23.89.94,1.47,1.26,1.36C34.33,27.92,34.1,27.68,33.74,27.5Z"/><path class="cls-1" d="M5.07,25.23c-.31-.18-.31.31-.22,1a1.21,1.21,0,0,1-.63,1.29c-.35.18-.59.42,0,.64.32.11,1-.47,1.25-1.36A1.33,1.33,0,0,0,5.07,25.23Z"/></g></g></svg>